# AST/ASF file generated using VICON BodyLanguage
# -----------------------------------------------
:version 1.10
:name VICON
:units
  mass 1.0
  length 0.45
  angle deg
:documentation
   .ast/.asf automatically generated from VICON data using
   VICON BodyBuilder and BodyLanguage model FoxedUp or BRILLIANT.MOD
:root
   order TX TY TZ RX RY RZ
   axis XYZ
   position 0 0 0  
   orientation 0 0 0 
:bonedata
  begin
     id 1 
     name lhipjoint
     direction 0.692814 -0.645514 0.321437 
     length 2.38754 
     axis 0 0 0  XYZ
  end
  begin
     id 2 
     name lfemur
     direction 0.34202 -0.939693 0  
     length 6.41921  
     axis 0 0 20  XYZ
    dof rx ry rz
    limits (-160.0 20.0)
           (-70.0 70.0)
           (-60.0 70.0)
  end
  begin
     id 3 
     name ltibia
     direction 0.34202 -0.939693 0   
     length 6.98247   
     axis 0 0 20   XYZ
    dof rx
    limits (-10.0 170.0)
  end
  begin
     id 4 
     name lfoot
     direction 0.0947186 -0.260237 0.960888   
     length 1.83034   
     axis -90 7.62852e-016 20   XYZ
    dof rx rz
    limits (-45.0 90.0)
           (-70.0 20.0)
  end
  begin
     id 5 
     name ltoes
     direction 1.53538e-011 -4.21952e-011 1   
     length 0.920499   
     axis -90 7.62852e-016 20   XYZ
    dof rx
    limits (-90.0 20.0)
  end
  begin
     id 6 
     name rhipjoint
     direction -0.631686 -0.693949 0.345555   
     length 2.2209  
     axis 0 0 0  XYZ 
  end
  begin
     id 7 
     name rfemur
     direction -0.34202 -0.939693 0   
     length 6.49542   
     axis 0 0 -20   XYZ
    dof rx ry rz
    limits (-160.0 20.0)
           (-70.0 70.0)
           (-70.0 60.0)
  end
  begin
     id 8 
     name rtibia
     direction -0.34202 -0.939693 0   
     length 7.21712   
     axis 0 0 -20   XYZ
    dof rx
    limits (-10.0 170.0)
 end
 begin
     id 9 
     name rfoot
     direction -0.0825378 -0.226771 0.970444   
     length 1.89724  
     axis -90 -7.62852e-016 -20   XYZ
    dof rx rz
    limits (-45.0 90.0)
           (-20.0 70.0)
  end
  begin
     id 10 
     name rtoes
     direction -1.53515e-011 -4.22016e-011 1   
     length 0.955868   
     axis -90 -7.62852e-016 -20   XYZ
    dof rx
    limits (-90.0 20.0)
  end
  begin
     id 11 
     name lowerback
     direction -0.0104711 0.984802 -0.173368   
     length 1.84931   
     axis 0 0 0   XYZ
    dof rx ry rz
    limits (-20.0 45.0)
           (-30.0 30.0)
           (-30.0 30.0)
  end
  begin
     id 12 
     name upperback
     direction -0.00286433 0.999996 -0.000382853   
     length 1.85768   
     axis 0 0 0   XYZ
    dof rx ry rz
    limits (-20.0 45.0)
           (-30.0 30.0)
           (-30.0 30.0)
  end
  begin
     id 13 
     name thorax
     direction 0.00167534 0.996793 0.0800069   
     length 1.92   
     axis 0 0 0   XYZ
    dof rx ry rz
    limits (-20.0 45.0)
           (-30.0 30.0)
           (-30.0 30.0)
  end
  begin
     id 14 
     name lowerneck
     direction -0.0672491 0.995415 0.068018   
     length 1.58923   
     axis 0 0 0   XYZ
    dof rx ry rz
    limits (-20.0 45.0)
           (-30.0 30.0)
           (-30.0 30.0)
  end
  begin
     id 15 
     name upperneck
     direction 0.0958019 0.982476 -0.159884   
     length 1.60189   
     axis 0 0 0   XYZ
    dof rx ry rz
    limits (-20.0 45.0)
           (-30.0 30.0)
           (-30.0 30.0)
  end
  begin
     id 16
     name head
     direction 0.032989 0.997338 -0.0650226  
     length 1.61681  
     axis 0 0 0   XYZ
    dof rx ry rz
    limits (-20.0 45.0)
           (-30.0 30.0)
           (-30.0 30.0)
  end
  begin
     id 17 
     name lclavicle
     direction 0.954279 0.298875 -0.00496069  
     length 2.99449  
     axis 0 0 0   XYZ
    dof ry rz
    limits (-20.0 10.0)
           (0.0 20.0)
  end
  begin
     id 18 
     name lhumerus
     direction 1 -4.48985e-011 -4.2057e-027   
     length 4.79185   
     axis 180 -30 -90   XYZ
    dof rx ry rz
    limits (-60.0 90.0)
           (-90.0 90.0)
           (-90.0 90.0)
  end
  begin
     id 19
     name lradius
     direction 1 -4.48945e-011 1.15441e-028   
     length 2.65553   
     axis 180 -30 -90   XYZ
    dof rx
    limits (-10.0 170.0)
  end
  begin
     id 20
     name lwrist
     direction 1 -4.4899e-011 4.8894e-028   
     length 1.32777   
     axis -2.56392e-016 90 90   XYZ
    dof ry
    limits (-180.0 0.0)
 end
  begin
     id 21 
     name lhand
     direction 1 -4.48908e-011 9.7788e-028   
     length 0.743904   
     axis -6.23971e-016 90 90   XYZ
    dof rx rz
    limits (-90.0 90.0)
           (-45.0 45.0)
  end
  begin
     id 22 
     name lfingers
     direction 1 -4.49068e-011 1.95576e-027   
     length 0.599754   
     axis -1.24794e-015 90 90   XYZ
    dof rx
    limits (0.0 90.0)
  end
  begin
     id 23
     name lthumb
     direction 0.707107 -6.34883e-011 0.707107   
     length 0.861131   
     axis -90 45 2.85299e-015   XYZ
    dof rx rz
    limits (-45.0 45.0)
           (-45.0 45.0)
  end
  begin
     id 24 
     name rclavicle
     direction -0.957921 0.286916 0.00811568   
     length 3.06817  
     axis 0 0 0   XYZ 
    dof ry rz
    limits (-10.0 20.0)
           (-20.0 0.0)
  end
  begin
     id 25 
     name rhumerus
     direction -1 -4.48971e-011 -3.07942e-027  
     length 4.77254   
     axis 180 30 90   XYZ
    dof rx ry rz
    limits (-90.0 60.0)
           (-90.0 90.0)
           (-90.0 90.0)
  end
  begin
     id 26 
     name rradius
     direction -1 -4.48957e-011 -9.6815e-028   
     length 2.75995   
     axis 180 30 90   XYZ
    dof rx
    limits (-10.0 170.0)
  end
  begin
     id 27 
     name rwrist
     direction -1 -4.48979e-011 4.8894e-028   
     length 1.37997   
     axis -2.56392e-016 -90 -90   XYZ
    dof ry
    limits (-180.0 0.0)
  end
  begin
     id 28
     name rhand
     direction -1 -4.48906e-011 9.7788e-028   
     length 0.701619   
     axis -6.23971e-016 -90 -90   XYZ
    dof rx rz
    limits (-90.0 90.0)
           (-45.0 45.0)
  end
  begin
     id 29
     name rfingers
     direction -1 -4.49018e-011 1.95576e-027   
     length 0.565663   
     axis -1.24794e-015 -90 -90   XYZ
    dof rx
    limits (0.0 90.0)
  end
  begin
     id 30
     name rthumb
     direction -0.707107 -6.34881e-011 0.707107   
     length 0.812183   
     axis -90 -45 -2.85299e-015   XYZ
    dof rx rz
    limits (-45.0 45.0)
           (-45.0 45.0)
  end
:hierarchy
  begin
    root lhipjoint rhipjoint lowerback
    lhipjoint lfemur
    lfemur ltibia
    ltibia lfoot
    lfoot ltoes
    rhipjoint rfemur
    rfemur rtibia
    rtibia rfoot
    rfoot rtoes
    lowerback upperback
    upperback thorax
    thorax lowerneck lclavicle rclavicle
    lowerneck upperneck
    upperneck head
    lclavicle lhumerus
    lhumerus lradius
    lradius lwrist
    lwrist lhand lthumb
    lhand lfingers
    rclavicle rhumerus
    rhumerus rradius
    rradius rwrist
    rwrist rhand rthumb
    rhand rfingers
  end

#!OML:ASF F:\VICON\USERDATA\INSTALL\rory3\rory3.ASF
:FULLY-SPECIFIED
:DEGREES
932
root 0.0562136 15.4431 0.849346 -5.09762 -0.915929 -0.543291
lowerback 2.3836 -0.37669 -1.28343
upperback -11.8639 -0.814234 -1.41475
thorax -14.3084 -0.354343 -0.727089
lowerneck -4.96255 -8.81037 -15.5492
upperneck -14.4526 -9.59765 21.8109
head -1.30941 -4.7113 9.24989
rclavicle 5.56597e-015 1.39149e-014
rhumerus 78.7208 12.2722 -89.4192
rradius 76.6552
rwrist 0.307233
rhand -9.85584 20.8955
rfingers 7.12502
rthumb 16.1225 -8.45388
lclavicle 5.56597e-015 1.39149e-014
lhumerus 80.8535 -16.952 84.0859
lradius 76.3144
lwrist 46.1284
lhand -16.8097 26.2322
lfingers 7.12502
lthumb 9.41896 56.0017
rfemur -1.01803 8.47846 19.6452
rtibia 34.4866
rfoot -22.2768 -13.0073
rtoes -19.7674
lfemur 0.547839 -5.18615 -16.1322
ltibia 30.8423
lfoot -20.8027 3.13166
ltoes -15.8769
933
root 0.0620153 15.4396 0.856698 -5.03803 -0.975542 -0.618936
lowerback 2.4841 -0.383313 -1.18189
upperback -11.9292 -0.811093 -1.36111
thorax -14.4527 -0.360095 -0.725171
lowerneck -5.07404 -8.83428 -15.5739
upperneck -14.4385 -9.61608 21.8241
head -1.28108 -4.7135 9.25126
rclavicle -9.14409e-015 6.75868e-015
rhumerus 78.7832 12.3872 -89.3786
rradius 77.4492
rwrist 0.505696
rhand -9.99518 21.0536
rfingers 7.12502
rthumb 15.9883 -8.30658
lclavicle -9.14409e-015 6.75868e-015
lhumerus 80.9017 -16.9581 83.8725
lradius 77.1232
lwrist 45.8645
lhand -16.6337 26.5529
lfingers 7.12502
lthumb 9.58882 56.3147
rfemur -1.13418 8.45885 19.6918
rtibia 34.6333
rfoot -22.2909 -13.0152
rtoes -19.8129
lfemur 0.452036 -5.16006 -16.0706
ltibia 30.9987
lfoot -20.8919 3.10959
ltoes -15.7087
934
root 0.068399 15.4354 0.862272 -4.96768 -0.99169 -0.578003
lowerback 2.58078 -0.392931 -1.20914
upperback -11.9617 -0.826581 -1.33122
thorax -14.5538 -0.361768 -0.674572
lowerneck -5.29494 -8.86212 -15.6408
upperneck -14.4489 -9.61815 21.8858
head -1.23827 -4.70168 9.27342
rclavicle 5.1684e-015 -3.18055e-015
rhumerus 78.9998 12.3804 -89.2348
rradius 78.2528
rwrist 0.568848
rhand -10.0775 21.1793
rfingers 7.12502
rthumb 15.909 -8.18722
lclavicle 5.1684e-015 -3.18055e-015
lhumerus 81.0086 -16.9761 83.6657
lradius 77.9715
lwrist 45.8108
lhand -16.4013 26.3645
lfingers 7.12502
lthumb 9.81299 56.1159
rfemur -1.26982 8.41104 19.5949
rtibia 34.781
rfoot -22.3468 -12.9313
rtoes -19.3093
lfemur 0.335505 -5.12124 -16.1364
ltibia 31.1243
lfoot -20.8621 3.11344
ltoes -15.6825
935
root 0.0739268 15.4337 0.866972 -4.88164 -1.03642 -0.462528
lowerback 2.6551 -0.381236 -1.31063
upperback -11.9945 -0.823654 -1.32965
thorax -14.6409 -0.348345 -0.616745
lowerneck -5.43156 -8.86099 -15.7744
upperneck -14.4306 -9.59077 22.0012
head -1.19865 -4.67818 9.33003
rclavicle -2.18663e-015 -9.54166e-015
rhumerus 79.2322 12.2508 -89.0432
rradius 79.0455
rwrist 0.618628
rhand -10.2223 21.3673
rfingers 7.12502
rthumb 15.7695 -8.0103
lclavicle -2.18663e-015 -9.54166e-015
lhumerus 81.1728 -17.0254 83.4287
lradius 78.6884
lwrist 45.725
lhand -16.4631 26.1342
lfingers 7.12502
lthumb 9.7534 55.8884
rfemur -1.4479 8.40378 19.4189
rtibia 34.9369
rfoot -22.5168 -12.8132
rtoes -19.2223
lfemur 0.217702 -5.04343 -16.2724
ltibia 31.2219
lfoot -20.8296 3.06114
ltoes -15.5484
936
root 0.0776718 15.4311 0.871169 -4.81039 -1.12782 -0.428444
lowerback 2.70987 -0.362911 -1.35932
upperback -11.9798 -0.800287 -1.28955
thorax -14.6566 -0.328424 -0.548345
lowerneck -5.75579 -8.86113 -15.9293
upperneck -14.2704 -9.55587 22.1452
head -1.08562 -4.63923 9.3863
rclavicle -6.75868e-015 -6.75868e-015
rhumerus 79.4555 12.228 -88.8599
rradius 79.8919
rwrist 0.767148
rhand -10.3322 21.5425
rfingers 7.12502
rthumb 15.6637 -7.84339
lclavicle -6.75868e-015 -6.75868e-015
lhumerus 81.4355 -17.0234 83.1909
lradius 79.3801
lwrist 45.5603
lhand -16.6735 26.1216
lfingers 7.12502
lthumb 9.55035 55.8851
rfemur -1.60969 8.52734 19.3793
rtibia 35.1051
rfoot -22.6755 -12.7786
rtoes -19.4032
lfemur 0.136353 -4.91964 -16.3015
ltibia 31.3073
lfoot -20.8889 3.0209
ltoes -15.8385
937
root 0.0825081 15.4282 0.874762 -4.76214 -1.17758 -0.360255
lowerback 2.79866 -0.358153 -1.43635
upperback -11.9662 -0.802939 -1.28042
thorax -14.6962 -0.319907 -0.494445
lowerneck -6.00201 -8.87785 -15.8374
upperneck -14.2059 -9.55932 22.0929
head -1.03539 -4.6297 9.33912
rclavicle -1.27222e-014 3.97569e-015
rhumerus 79.6241 12.2281 -88.7278
rradius 80.7581
rwrist 0.851163
rhand -10.1755 21.5353
rfingers 7.12502
rthumb 15.8147 -7.83877
lclavicle -1.27222e-014 3.97569e-015
lhumerus 81.6692 -16.986 82.982
lradius 80.1565
lwrist 45.5389
lhand -16.5149 26.0224
lfingers 7.12502
lthumb 9.70339 55.7789
rfemur -1.73756 8.57886 19.2918
rtibia 35.2679
rfoot -22.695 -12.8293
rtoes -19.8349
lfemur 0.0551783 -4.89291 -16.3902
ltibia 31.4097
lfoot -20.989 2.98799
ltoes -15.8446
938
root 0.0877849 15.425 0.87899 -4.68011 -1.20579 -0.324678
lowerback 2.84969 -0.357267 -1.47632
upperback -11.9998 -0.805673 -1.2592
thorax -14.7697 -0.314583 -0.44834
lowerneck -5.74242 -8.87142 -15.6279
upperneck -14.5141 -9.56207 21.8943
head -1.19338 -4.65256 9.26141
rclavicle 1.19271e-015 7.95139e-016
rhumerus 79.7173 12.2482 -88.6388
rradius 81.599
rwrist 0.986137
rhand -9.99144 21.3865
rfingers 7.12502
rthumb 15.9919 -7.97344
lclavicle 1.19271e-015 7.95139e-016
lhumerus 81.7873 -17.0188 82.8263
lradius 80.9009
lwrist 45.4923
lhand -16.2341 25.6121
lfingers 7.12502
lthumb 9.97433 55.3558
rfemur -1.88627 8.5698 19.2191
rtibia 35.404
rfoot -22.7428 -12.813
rtoes -19.8487
lfemur -0.0832299 -4.84692 -16.4376
ltibia 31.5466
lfoot -21.0351 2.95194
ltoes -15.6728
939
root 0.0937544 15.4225 0.880943 -4.56932 -1.22949 -0.366778
lowerback 2.93209 -0.353613 -1.44078
upperback -12.0571 -0.794374 -1.20865
thorax -14.893 -0.308767 -0.413975
lowerneck -5.54265 -8.87004 -15.5159
upperneck -14.7157 -9.57038 21.7743
head -1.29838 -4.6712 9.2194
rclavicle 2.5842e-015 3.97569e-015
rhumerus 79.7425 12.3303 -88.533
rradius 82.4254
rwrist 1.1706
rhand -9.8601 21.4587
rfingers 7.12502
rthumb 16.1184 -7.89098
lclavicle 2.5842e-015 3.97569e-015
lhumerus 81.8516 -17.103 82.6452
lradius 81.6224
lwrist 45.3555
lhand -16.0312 25.0991
lfingers 7.12502
lthumb 10.1701 54.8333
rfemur -2.07185 8.5931 19.227
rtibia 35.5273
rfoot -22.8119 -12.8039
rtoes -19.7152
lfemur -0.270526 -4.78755 -16.3911
ltibia 31.6938
lfoot -21.0506 2.87645
ltoes -15.413
940
root 0.101758 15.4214 0.882576 -4.40974 -1.27559 -0.400909
lowerback 2.97605 -0.336773 -1.3664
upperback -12.096 -0.761494 -1.17534
thorax -14.9696 -0.298981 -0.423711
lowerneck -5.61272 -8.89527 -15.5274
upperneck -14.7365 -9.59037 21.8118
head -1.28521 -4.67826 9.22982
rclavicle -4.57205e-015 2.78299e-015
rhumerus 79.86 12.3615 -88.4101
rradius 83.1641
rwrist 1.37862
rhand -9.90278 21.6945
rfingers 7.12502
rthumb 16.0773 -7.6585
lclavicle -4.57205e-015 2.78299e-015
lhumerus 82.0073 -17.1747 82.4433
lradius 82.3558
lwrist 45.2097
lhand -15.7622 24.9568
lfingers 7.12502
lthumb 10.4296 54.6781
rfemur -2.30222 8.57716 19.198
rtibia 35.6358
rfoot -22.8257 -12.781
rtoes -19.7811
lfemur -0.521422 -4.7562 -16.3717
ltibia 31.847
lfoot -21.1154 2.90321
ltoes -15.4442
941
root 0.10913 15.4226 0.88312 -4.24104 -1.29422 -0.326664
lowerback 3.01187 -0.325374 -1.37749
upperback -12.1223 -0.75061 -1.19074
thorax -15.0258 -0.293624 -0.436474
lowerneck -5.54804 -8.91124 -15.5238
upperneck -14.9096 -9.59593 21.859
head -1.34029 -4.68829 9.25489
rclavicle -6.55989e-015 -1.98785e-014
rhumerus 80.0514 12.3464 -88.3058
rradius 83.8391
rwrist 1.61637
rhand -10.049 22.0047
rfingers 7.12502
rthumb 15.9364 -7.35969
lclavicle -6.55989e-015 -1.98785e-014
lhumerus 82.2442 -17.2076 82.2033
lradius 83.095
lwrist 45.1414
lhand -15.592 25.0433
lfingers 7.12502
lthumb 10.5937 54.7562
rfemur -2.55149 8.55591 19.054
rtibia 35.7452
rfoot -22.8732 -12.7709
rtoes -19.8469
lfemur -0.809615 -4.75359 -16.475
ltibia 32.025
lfoot -21.1848 2.93151
ltoes -15.4283
942
root 0.113567 15.4229 0.882652 -4.09638 -1.3615 -0.370051
lowerback 3.078 -0.321372 -1.30381
upperback -12.1615 -0.736612 -1.16359
thorax -15.1175 -0.293307 -0.449636
lowerneck -5.3852 -8.88672 -15.4508
upperneck -15.0881 -9.56418 21.8383
head -1.4296 -4.68662 9.25348
rclavicle -3.57812e-015 1.19271e-015
rhumerus 80.1857 12.3901 -88.2588
rradius 84.5761
rwrist 1.84692
rhand -10.1975 22.1285
rfingers 7.12502
rthumb 15.7935 -7.24718
lclavicle -3.57812e-015 1.19271e-015
lhumerus 82.4253 -17.1941 81.9569
lradius 83.7837
lwrist 45.1963
lhand -15.5747 24.9446
lfingers 7.12502
lthumb 10.6105 54.6567
rfemur -2.80174 8.61408 19.0678
rtibia 35.8627
rfoot -22.8463 -12.7316
rtoes -19.6871
lfemur -1.0725 -4.68373 -16.4226
ltibia 32.2409
lfoot -21.2842 2.86384
ltoes -15.1149
943
root 0.116797 15.421 0.880795 -3.95837 -1.40837 -0.484237
lowerback 3.17071 -0.342888 -1.18765
upperback -12.2096 -0.749233 -1.10333
thorax -15.2373 -0.307852 -0.44529
lowerneck -5.44493 -8.86218 -15.4102
upperneck -14.9526 -9.54281 21.8197
head -1.38879 -4.67331 9.23331
rclavicle 4.96962e-015 -4.37326e-015
rhumerus 80.1868 12.5879 -88.2832
rradius 85.3806
rwrist 2.2003
rhand -10.2937 22.2307
rfingers 7.12502
rthumb 15.7008 -7.15237
lclavicle 4.96962e-015 -4.37326e-015
lhumerus 82.5499 -17.2026 81.7682
lradius 84.3984
lwrist 45.1927
lhand -15.4394 24.7425
lfingers 7.12502
lthumb 10.7409 54.4479
rfemur -3.05969 8.61473 19.1551
rtibia 36.0058
rfoot -22.8002 -12.7021
rtoes -19.6247
lfemur -1.34976 -4.58063 -16.2793
ltibia 32.4727
lfoot -21.2637 2.85002
ltoes -15.063
944
root 0.119794 15.4152 0.877354 -3.80269 -1.41831 -0.560086
lowerback 3.26496 -0.372823 -1.13099
upperback -12.2633 -0.779381 -1.04111
thorax -15.3651 -0.323311 -0.40258
lowerneck -5.5516 -8.84836 -15.4617
upperneck -14.7191 -9.53943 21.8199
head -1.30253 -4.66138 9.22748
rclavicle 4.96962e-015 1.15295e-014
rhumerus 80.1396 12.8478 -88.2433
rradius 86.1718
rwrist 2.64947
rhand -10.5168 22.3321
rfingers 7.12502
rthumb 15.4859 -7.06764
lclavicle 4.96962e-015 1.15295e-014
lhumerus 82.6506 -17.2365 81.6322
lradius 84.9113
lwrist 44.9878
lhand -14.965 24.4732
lfingers 7.12502
lthumb 11.1985 54.1543
rfemur -3.3146 8.58004 19.1981
rtibia 36.1592
rfoot -22.816 -12.7581
rtoes -20.1671
lfemur -1.67334 -4.5014 -16.1701
ltibia 32.7133
lfoot -21.2611 2.80624
ltoes -15.047
945
root 0.124203 15.4115 0.872808 -3.63885 -1.38064 -0.481536
lowerback 3.34864 -0.406655 -1.2068
upperback -12.3111 -0.835604 -1.02968
thorax -15.4784 -0.339276 -0.338256
lowerneck -5.42314 -8.79972 -15.4562
upperneck -14.7276 -9.49181 21.778
head -1.33889 -4.64447 9.22279
rclavicle -7.95139e-016 1.39149e-014
rhumerus 80.1262 13.078 -88.2042
rradius 86.9595
rwrist 3.10041
rhand -10.6696 22.4101
rfingers 7.12502
rthumb 15.3387 -7.00099
lclavicle -7.95139e-016 1.39149e-014
lhumerus 82.7569 -17.3035 81.4991
lradius 85.5027
lwrist 44.8564
lhand -14.6503 24.1744
lfingers 7.12502
lthumb 11.502 53.8388
rfemur -3.58016 8.49165 19.0435
rtibia 36.3111
rfoot -22.9121 -12.6868
rtoes -20.4274
lfemur -1.99284 -4.46634 -16.2439
ltibia 32.9286
lfoot -21.3077 2.71633
ltoes -15.0995
